<svg width="606" height="593" viewBox="0 0 606 593" fill="none" xmlns="http://www.w3.org/2000/svg">
<rect y="3" width="588" height="590" rx="165" fill="url(#paint0_linear_2_20)"/>
<g filter="url(#filter0_f_2_20)">
<path d="M192.592 171.574C187.129 134.809 224.282 109.599 237.395 109.599C249.415 109.599 273.455 105.607 273.455 89.6411C273.455 69.6831 343.39 69.6831 363.06 79.1369C382.729 88.5907 422.067 149.515 445.015 163.17C467.962 176.826 504.023 192.582 524.785 211.49C545.547 230.397 522.599 265.061 504.023 318.633C485.446 372.204 461.406 366.952 422.067 325.986C382.729 285.019 387.1 318.633 356.503 318.633C325.907 318.633 298.588 290.271 273.455 270.313C248.322 250.355 198.056 208.339 192.592 171.574Z" fill="#FD0557"/>
</g>
<g filter="url(#filter1_f_2_20)">
<path d="M145.312 215.65C139.984 187.937 150.64 172.927 174.616 171.772C180.388 162.149 194.063 145.214 202.588 154.452C213.244 165.998 265.192 215.65 306.484 246.826C347.776 278.003 367.756 279.157 423.7 294.168C479.645 309.179 453.004 357.676 447.676 406.173C442.348 454.669 413.044 433.885 383.74 428.112C354.436 422.338 346.444 406.173 295.828 347.284C245.212 288.395 223.9 310.334 191.932 288.395C159.964 266.456 150.64 243.362 145.312 215.65Z" fill="#A818DB"/>
</g>
<g filter="url(#filter2_f_2_20)">
<path d="M118.708 306.632C102.128 228.565 143.797 230.469 166.704 241.179C166.704 249.113 174.994 264.504 208.154 262.6C249.605 260.22 236.515 262.6 295.418 279.261C354.321 295.922 313.962 294.732 331.415 344.714C348.867 394.696 337.959 383.985 301.963 426.827C265.967 469.669 274.693 437.537 166.704 417.307C58.7144 397.076 139.434 404.216 118.708 306.632Z" fill="#3B2DD7"/>
</g>
<path d="M522.07 350.313C525.441 351.054 527.582 354.391 526.757 357.742C516.488 399.471 495.624 437.886 466.139 469.247C435.226 502.126 395.989 526.024 352.591 538.406C309.193 550.788 263.253 551.192 219.644 539.575C176.035 527.957 136.385 504.752 104.898 472.421C73.4122 440.09 51.2649 399.838 40.8061 355.937C30.3473 312.036 31.9672 266.123 45.4938 223.068C59.0205 180.013 83.9494 141.423 117.636 111.391C149.766 82.7467 188.72 62.9074 230.706 53.7466C234.078 53.0107 237.357 55.2385 238.008 58.6283V58.6283C238.659 62.0181 236.437 65.2858 233.065 66.026C193.295 74.7583 156.4 93.5788 125.954 120.721C93.9519 149.252 70.2694 185.913 57.4191 226.815C44.5688 267.717 43.03 311.334 52.9658 353.04C62.9016 394.746 83.9416 432.985 113.854 463.7C143.765 494.414 181.434 516.459 222.862 527.496C264.29 538.533 307.934 538.149 349.161 526.386C390.389 514.623 427.665 491.92 457.032 460.684C484.971 430.968 504.762 394.584 514.544 355.059C515.373 351.708 518.699 349.573 522.07 350.313V350.313Z" fill="#D9D9D9"/>
<path d="M497.799 248.854C500.827 248.158 503.853 250.048 504.473 253.092C511.688 288.513 510.267 325.181 500.294 359.984C489.803 396.591 470.193 429.936 443.301 456.897C416.408 483.858 383.113 503.552 346.532 514.136C309.952 524.719 271.285 525.845 234.151 517.408C197.017 508.972 162.631 491.248 134.215 465.898C105.799 440.547 84.2824 408.399 71.6795 372.465C59.0767 336.531 55.8003 297.985 62.1573 260.439C68.201 224.744 82.764 191.062 104.576 162.235C106.451 159.758 109.996 159.362 112.426 161.297V161.297C114.855 163.233 115.249 166.768 113.378 169.248C92.7503 196.583 78.9752 228.499 73.2494 262.317C67.2103 297.986 70.3228 334.604 82.2956 368.742C94.2683 402.879 114.709 433.42 141.705 457.503C168.7 481.586 201.366 498.423 236.643 506.438C271.92 514.453 308.655 513.383 343.406 503.329C378.157 493.275 409.788 474.565 435.336 448.952C460.884 423.339 479.513 391.661 489.479 356.885C498.928 323.912 500.296 289.177 493.505 255.613C492.889 252.568 494.772 249.55 497.799 248.854V248.854Z" fill="#D9D9D9"/>
<path d="M445.148 407.802C447.43 409.357 448.024 412.471 446.413 414.714C426.475 442.458 399.744 464.656 368.748 479.157C336.242 494.364 300.241 500.544 264.524 497.049C228.806 493.555 194.687 480.513 165.744 459.293C136.802 438.073 114.102 409.457 100.026 376.444C85.9496 343.432 81.0158 307.24 85.7416 271.664C90.4674 236.088 104.679 202.439 126.885 174.247C149.092 146.054 178.475 124.355 211.954 111.427C243.876 99.1003 278.401 95.18 312.224 100.001C314.957 100.391 316.794 102.976 316.336 105.7V105.7C315.878 108.423 313.299 110.252 310.565 109.866C278.513 105.34 245.805 109.075 215.556 120.756C183.751 133.038 155.837 153.651 134.741 180.434C113.645 207.217 100.144 239.184 95.6545 272.981C91.165 306.778 95.8522 341.16 109.224 372.522C122.597 403.884 144.161 431.07 171.657 451.229C199.153 471.388 231.566 483.777 265.498 487.097C299.429 490.417 333.629 484.546 364.511 470.099C393.882 456.359 419.221 435.343 438.146 409.081C439.76 406.841 442.866 406.247 445.148 407.802V407.802Z" fill="#D9D9D9"/>
<path d="M453.303 276.804C455.701 276.504 457.894 278.204 458.134 280.608C461.168 310.99 456.203 341.665 443.694 369.574C430.589 398.815 409.706 423.896 383.324 442.082C356.942 460.269 326.073 470.863 294.083 472.709C262.093 474.556 230.21 467.583 201.911 452.552C173.612 437.521 149.983 415.009 133.6 387.47C117.218 359.931 108.711 328.423 109.007 296.381C109.304 264.339 118.392 232.994 135.281 205.763C151.401 179.772 174.036 158.482 200.908 143.985C203.034 142.838 205.671 143.702 206.764 145.857V145.857C207.858 148.011 206.995 150.64 204.87 151.79C179.426 165.56 157.992 185.746 142.717 210.375C126.673 236.244 118.039 266.022 117.757 296.462C117.476 326.902 125.557 356.835 141.12 382.997C156.683 409.159 179.131 430.545 206.015 444.825C232.9 459.104 263.188 465.728 293.579 463.974C323.969 462.22 353.295 452.156 378.358 434.878C403.421 417.601 423.259 393.774 435.709 365.995C447.563 339.549 452.286 310.487 449.449 281.696C449.212 279.291 450.906 277.104 453.303 276.804V276.804Z" fill="#D9D9D9"/>
<g filter="url(#filter3_d_2_20)">
<path d="M395.607 369.687C391.341 387.973 377.474 398.25 358.875 401.72C342.542 404.723 328.942 405.458 315.876 394.914C299.943 381.5 299.743 359.277 314.076 345.262C325.409 334.451 341.342 332.249 365.275 328.044C369.275 327.31 372.741 326.376 375.674 323.106C379.941 318.301 378.608 320.37 378.608 214.194C378.608 206.719 374.941 204.651 367.275 205.985C361.808 206.919 243.477 229.076 243.477 229.076C236.677 230.543 234.544 232.546 234.544 240.221C234.544 396.849 235.277 389.641 232.878 400.052C230.078 412.198 222.611 421.341 212.745 426.413C201.545 432.619 181.279 435.355 170.479 433.353C141.679 427.948 131.546 394.646 151.079 375.56C162.412 364.749 178.345 362.547 202.278 358.342C206.278 357.607 209.745 356.674 212.678 353.404C219.411 345.729 213.878 182.161 216.145 173.085C216.678 169.614 218.145 166.678 220.878 164.476C223.678 162.14 228.744 160.805 229.811 160.805C365.808 135.313 382.408 132.042 384.741 132.042C392.407 131.509 396.807 136.047 396.807 143.788C396.941 373.691 397.541 361.345 395.607 369.687Z" fill="white"/>
</g>
<defs>
<filter id="filter0_f_2_20" x="119.348" y="0.300003" width="486.352" height="430.165" filterUnits="userSpaceOnUse" color-interpolation-filters="sRGB">
<feFlood flood-opacity="0" result="BackgroundImageFix"/>
<feBlend mode="normal" in="SourceGraphic" in2="BackgroundImageFix" result="shape"/>
<feGaussianBlur stdDeviation="36.35" result="effect1_foregroundBlur_2_20"/>
</filter>
<filter id="filter1_f_2_20" x="71.2676" y="79.0815" width="460.109" height="431.114" filterUnits="userSpaceOnUse" color-interpolation-filters="sRGB">
<feFlood flood-opacity="0" result="BackgroundImageFix"/>
<feBlend mode="normal" in="SourceGraphic" in2="BackgroundImageFix" result="shape"/>
<feGaussianBlur stdDeviation="36.35" result="effect1_foregroundBlur_2_20"/>
</filter>
<filter id="filter2_f_2_20" x="36.3" y="163.115" width="375.968" height="357.585" filterUnits="userSpaceOnUse" color-interpolation-filters="sRGB">
<feFlood flood-opacity="0" result="BackgroundImageFix"/>
<feBlend mode="normal" in="SourceGraphic" in2="BackgroundImageFix" result="shape"/>
<feGaussianBlur stdDeviation="36.35" result="effect1_foregroundBlur_2_20"/>
</filter>
<filter id="filter3_d_2_20" x="106" y="97" width="336" height="382" filterUnits="userSpaceOnUse" color-interpolation-filters="sRGB">
<feFlood flood-opacity="0" result="BackgroundImageFix"/>
<feColorMatrix in="SourceAlpha" type="matrix" values="0 0 0 0 0 0 0 0 0 0 0 0 0 0 0 0 0 0 127 0" result="hardAlpha"/>
<feOffset dx="5" dy="5"/>
<feGaussianBlur stdDeviation="20"/>
<feComposite in2="hardAlpha" operator="out"/>
<feColorMatrix type="matrix" values="0 0 0 0 0 0 0 0 0 0 0 0 0 0 0 0 0 0 0.75 0"/>
<feBlend mode="normal" in2="BackgroundImageFix" result="effect1_dropShadow_2_20"/>
<feBlend mode="normal" in="SourceGraphic" in2="effect1_dropShadow_2_20" result="shape"/>
</filter>
<linearGradient id="paint0_linear_2_20" x1="68" y1="35" x2="542" y2="540" gradientUnits="userSpaceOnUse">
<stop stop-color="#4D5D75"/>
<stop offset="1" stop-color="#160821"/>
</linearGradient>
</defs>
</svg>
